Coordinates
version=1
nRows=6
nColumns=36
inDegrees=yes

Units are S.I. units (second, meters, Newtons, ...)
If the header above contains a line with 'inDegrees', this indicates whether rotational values are in degrees (yes) or radians (no).

endheader
time	pelvis_tilt	pelvis_list	pelvis_rotation	pelvis_tx	pelvis_ty	pelvis_tz	hip_flexion_r	hip_adduction_r	hip_rotation_r	knee_angle_r	knee_angle_r_beta	ankle_angle_r	subtalar_angle_r	mtp_angle_r	hip_flexion_l	hip_adduction_l	hip_rotation_l	knee_angle_l	knee_angle_l_beta	ankle_angle_l	subtalar_angle_l	mtp_angle_l	lumbar_extension	lumbar_bending	lumbar_rotation	arm_flex_r	arm_add_r	arm_rot_r	elbow_flex_r	pro_sup_r	arm_flex_l	arm_add_l	arm_rot_l	elbow_flex_l	pro_sup_l
      2.16000000	      3.27991815	      8.53651642	   -134.10836302	      0.15901586	      0.91458936	      0.24279430	      8.74601892	     17.61512665	     38.19967587	     15.68121556	      0.27368884	      8.86164501	     16.37618012	     -7.49999987	     39.33305471	    -10.22494212	      3.22325401	     54.37077706	      0.94894908	     -7.70473847	    -34.37627875	     -7.49999987	    -10.36776167	      1.49082664	     15.18237893	      7.52530960	    -11.20356817	      0.17733060	     30.17465416	     65.81055526	     -3.42588643	     -2.81248096	      7.45996638	     18.63615472	     69.74275875
      2.16166670	      3.93977236	      9.04639153	   -135.41089483	      0.15864918	      0.90810484	      0.24258244	      9.79007141	     17.53858608	     37.83979205	     16.51482313	      0.28823804	      9.54189424	     17.98776513	     -7.49999987	     40.16166769	    -10.23680202	      2.92768193	     53.25412958	      0.92945990	     -6.44846724	    -34.37126080	     -7.49999987	     -9.62935046	      1.48665144	     15.98255465	      7.58194760	    -11.43153333	      0.35340487	     30.38760269	     65.32458181	     -3.59195560	     -2.58377341	      7.46675292	     18.70765538	     68.97811728
      2.16333330	      4.28087246	      9.28954574	   -136.20693856	      0.15754505	      0.90862776	      0.24153518	     10.30562839	     17.54073367	     37.62678051	     16.98362625	      0.29642020	     10.06672970	     19.05152390	     -7.49999987	     40.75734620	    -10.26906965	      2.90441628	     52.73876778	      0.92046514	     -6.35317831	    -34.34900331	     -7.49999987	     -9.27379678	      1.55875481	     16.39177092	      7.56645986	    -11.76972215	      1.05637967	     30.66973873	     65.63638023	     -3.62214209	     -2.67849151	      8.77912040	     18.77199206	     69.71172567
      2.16500000	      4.70743424	      9.29632035	   -136.67551956	      0.15761214	      0.91425905	      0.24164945	     10.42522503	     17.04362549	     37.23022703	     16.64665177	      0.29053888	      9.85406213	     19.86206853	     -7.49999987	     41.12658272	     -9.94360351	      3.06672037	     51.34751553	      0.89618321	     -7.73368904	    -34.29457733	     -7.49999987	     -9.05513780	      1.34964367	     16.46252617	      7.66613859	    -11.74358764	      1.06086292	     30.91895147	     65.68508591	     -3.44575740	     -2.67431314	      8.81384574	     18.82958144	     69.80508155
      2.16666670	      5.25764657	      8.90344233	   -136.58859727	      0.15316850	      0.91981569	      0.24668690	     10.07666062	     15.84615764	     36.40065295	     15.71175608	      0.27422187	      9.16240510	     19.92528480	     -7.49999987	     40.53002450	     -9.10129895	      3.05610583	     48.76218892	      0.85106075	    -10.11000276	    -34.21542890	     -7.49999987	     -8.93038607	      0.71525952	     16.52225880	      7.40754290	    -11.68638160	      0.69475457	     31.40755537	     65.89076403	     -3.03960660	     -2.86384600	      9.39450984	     18.83657429	     70.41472748
      2.16833330	      5.75180964	      9.20203823	   -136.54629875	      0.15354910	      0.91204078	      0.24732917	     10.77198037	     15.55824751	     35.08602826	     15.94577261	      0.27830623	      9.36681792	     19.72045769	     -7.49999987	     41.21494508	     -8.60985055	      3.51008733	     47.67148142	      0.83202431	    -11.01807532	    -34.11055065	     -7.49999987	     -8.37775013	      0.66885931	     16.60484854	      7.32049016	    -11.64926604	      0.37631293	     31.48096447	     65.23931909	     -2.74483476	     -2.90649779	      9.61437825	     18.68754331	     69.39209114
